<svg xmlns="http://www.w3.org/2000/svg" width="16" height="16" viewBox="0 0 16 16" fill="none">
  <path fill="none" stroke="#121212" stroke-width="1.5" d="M15.1862 4.45831C14.9987 4.27084 14.7444 4.16553 14.4792 4.16553C14.2141 4.16553 13.9597 4.27084 13.7722 4.45831L8.82222 9.40831L3.87222 4.45831C3.68361 4.27616 3.43101 4.17536 3.16882 4.17764C2.90662 4.17992 2.65581 4.28509 2.4704 4.47049C2.28499 4.6559 2.17982 4.90672 2.17754 5.16891C2.17527 5.43111 2.27606 5.68371 2.45822 5.87231L8.11522 11.5293C8.30275 11.7168 8.55705 11.8221 8.82222 11.8221C9.08738 11.8221 9.34169 11.7168 9.52922 11.5293L15.1862 5.87231C15.3737 5.68479 15.479 5.43048 15.479 5.16531C15.479 4.90015 15.3737 4.64584 15.1862 4.45831Z" />
</svg>